<svg xmlns="http://www.w3.org/2000/svg" width="4200" height="1000" viewBox="0 0 4200 1000"><defs>
<linearGradient id="sand" x2="0" y2="1"><stop stop-color="#f5d8ad"/><stop offset="1" stop-color="#dfb77d"/></linearGradient>
<filter id="shadow" x="-.5" y="-.5" width="2" height="2"><feDropShadow dx="10" dy="15" stdDeviation="3" flood-color="#814923" flood-opacity=".22"/></filter>
<g id="cactus" filter="url(#shadow)"><path d="M0 30V-28M0 2h-18v-21M0-9h18v-22" fill="none" stroke="#496f47" stroke-width="15" stroke-linecap="round" stroke-linejoin="round"/><path d="M-3 25V-27M-21-1v-15M15-13v-15" stroke="#86a366" stroke-width="3" fill="none" stroke-linecap="round"/></g>
<g id="mesa" filter="url(#shadow)"><path d="M-104-22l40-67 103-8 72 54 16 63-58 57-127-8-60-43z" fill="#c77d50"/><path d="M-78-24l35-45 73-6 55 40 11 49-43 41-96-5-41-32z" fill="#e1a16b"/><path d="M-44-29l26-24 50 3 35 29-7 41-48 15-55-23z" fill="#edba82"/><path d="M-65 36l45 11m61-101l25 18m-76-17l24-2" stroke="#f6d19f" stroke-width="5" stroke-linecap="round"/></g>
</defs><rect width="4200" height="1000" fill="url(#sand)"/><ellipse cx="-130" cy="130" rx="310" ry="110" fill="none" stroke="#f9e4c3" stroke-opacity=".4" stroke-width="3" transform="rotate(-15 -130 130)"/><ellipse cx="180" cy="460" rx="310" ry="110" fill="none" stroke="#f9e4c3" stroke-opacity=".4" stroke-width="3" transform="rotate(-15 180 460)"/><ellipse cx="490" cy="790" rx="310" ry="110" fill="none" stroke="#f9e4c3" stroke-opacity=".4" stroke-width="3" transform="rotate(-15 490 790)"/><ellipse cx="800" cy="130" rx="310" ry="110" fill="none" stroke="#f9e4c3" stroke-opacity=".4" stroke-width="3" transform="rotate(-15 800 130)"/><ellipse cx="1110" cy="460" rx="310" ry="110" fill="none" stroke="#f9e4c3" stroke-opacity=".4" stroke-width="3" transform="rotate(-15 1110 460)"/><ellipse cx="1420" cy="790" rx="310" ry="110" fill="none" stroke="#f9e4c3" stroke-opacity=".4" stroke-width="3" transform="rotate(-15 1420 790)"/><ellipse cx="1730" cy="130" rx="310" ry="110" fill="none" stroke="#f9e4c3" stroke-opacity=".4" stroke-width="3" transform="rotate(-15 1730 130)"/><ellipse cx="2040" cy="460" rx="310" ry="110" fill="none" stroke="#f9e4c3" stroke-opacity=".4" stroke-width="3" transform="rotate(-15 2040 460)"/><ellipse cx="2350" cy="790" rx="310" ry="110" fill="none" stroke="#f9e4c3" stroke-opacity=".4" stroke-width="3" transform="rotate(-15 2350 790)"/><ellipse cx="2660" cy="130" rx="310" ry="110" fill="none" stroke="#f9e4c3" stroke-opacity=".4" stroke-width="3" transform="rotate(-15 2660 130)"/><ellipse cx="2970" cy="460" rx="310" ry="110" fill="none" stroke="#f9e4c3" stroke-opacity=".4" stroke-width="3" transform="rotate(-15 2970 460)"/><ellipse cx="3280" cy="790" rx="310" ry="110" fill="none" stroke="#f9e4c3" stroke-opacity=".4" stroke-width="3" transform="rotate(-15 3280 790)"/><ellipse cx="3590" cy="130" rx="310" ry="110" fill="none" stroke="#f9e4c3" stroke-opacity=".4" stroke-width="3" transform="rotate(-15 3590 130)"/><ellipse cx="3900" cy="460" rx="310" ry="110" fill="none" stroke="#f9e4c3" stroke-opacity=".4" stroke-width="3" transform="rotate(-15 3900 460)"/><ellipse cx="4210" cy="790" rx="310" ry="110" fill="none" stroke="#f9e4c3" stroke-opacity=".4" stroke-width="3" transform="rotate(-15 4210 790)"/><ellipse cx="4520" cy="130" rx="310" ry="110" fill="none" stroke="#f9e4c3" stroke-opacity=".4" stroke-width="3" transform="rotate(-15 4520 130)"/><ellipse cx="1769" cy="811" rx="5" ry="2" fill="#ad8052" opacity=".25"/><ellipse cx="4198" cy="187" rx="6" ry="2" fill="#ad8052" opacity=".25"/><ellipse cx="1933" cy="807" rx="2" ry="2" fill="#ad8052" opacity=".25"/><ellipse cx="115" cy="379" rx="6" ry="2" fill="#ad8052" opacity=".25"/><ellipse cx="3507" cy="70" rx="3" ry="2" fill="#ad8052" opacity=".25"/><ellipse cx="1902" cy="943" rx="3" ry="2" fill="#ad8052" opacity=".25"/><ellipse cx="3619" cy="34" rx="4" ry="2" fill="#ad8052" opacity=".25"/><ellipse cx="4075" cy="710" rx="2" ry="2" fill="#ad8052" opacity=".25"/><ellipse cx="3018" cy="23" rx="3" ry="2" fill="#ad8052" opacity=".25"/><ellipse cx="724" cy="127" rx="2" ry="2" fill="#ad8052" opacity=".25"/><ellipse cx="3712" cy="164" rx="6" ry="2" fill="#ad8052" opacity=".25"/><ellipse cx="3970" cy="154" rx="3" ry="2" fill="#ad8052" opacity=".25"/><ellipse cx="1924" cy="76" rx="3" ry="2" fill="#ad8052" opacity=".25"/><ellipse cx="1708" cy="689" rx="7" ry="2" fill="#ad8052" opacity=".25"/><ellipse cx="581" cy="125" rx="6" ry="2" fill="#ad8052" opacity=".25"/><ellipse cx="3178" cy="205" rx="4" ry="2" fill="#ad8052" opacity=".25"/><ellipse cx="1197" cy="908" rx="6" ry="2" fill="#ad8052" opacity=".25"/><ellipse cx="3355" cy="298" rx="4" ry="2" fill="#ad8052" opacity=".25"/><ellipse cx="3160" cy="325" rx="5" ry="2" fill="#ad8052" opacity=".25"/><ellipse cx="3166" cy="272" rx="2" ry="2" fill="#ad8052" opacity=".25"/><ellipse cx="764" cy="162" rx="7" ry="2" fill="#ad8052" opacity=".25"/><ellipse cx="4063" cy="2" rx="5" ry="2" fill="#ad8052" opacity=".25"/><ellipse cx="923" cy="185" rx="7" ry="2" fill="#ad8052" opacity=".25"/><ellipse cx="2852" cy="853" rx="4" ry="2" fill="#ad8052" opacity=".25"/><ellipse cx="2839" cy="780" rx="6" ry="2" fill="#ad8052" opacity=".25"/><ellipse cx="2511" cy="251" rx="2" ry="2" fill="#ad8052" opacity=".25"/><ellipse cx="1381" cy="67" rx="3" ry="2" fill="#ad8052" opacity=".25"/><ellipse cx="3512" cy="383" rx="3" ry="2" fill="#ad8052" opacity=".25"/><ellipse cx="300" cy="692" rx="6" ry="2" fill="#ad8052" opacity=".25"/><ellipse cx="1336" cy="984" rx="7" ry="2" fill="#ad8052" opacity=".25"/><ellipse cx="116" cy="904" rx="4" ry="2" fill="#ad8052" opacity=".25"/><ellipse cx="3076" cy="682" rx="3" ry="2" fill="#ad8052" opacity=".25"/><ellipse cx="2014" cy="166" rx="6" ry="2" fill="#ad8052" opacity=".25"/><ellipse cx="3337" cy="792" rx="7" ry="2" fill="#ad8052" opacity=".25"/><ellipse cx="3958" cy="58" rx="4" ry="2" fill="#ad8052" opacity=".25"/><ellipse cx="427" cy="873" rx="4" ry="2" fill="#ad8052" opacity=".25"/><ellipse cx="2374" cy="35" rx="5" ry="2" fill="#ad8052" opacity=".25"/><ellipse cx="2036" cy="174" rx="5" ry="2" fill="#ad8052" opacity=".25"/><ellipse cx="568" cy="891" rx="4" ry="2" fill="#ad8052" opacity=".25"/><ellipse cx="1196" cy="154" rx="7" ry="2" fill="#ad8052" opacity=".25"/><ellipse cx="3923" cy="50" rx="4" ry="2" fill="#ad8052" opacity=".25"/><ellipse cx="1143" cy="981" rx="7" ry="2" fill="#ad8052" opacity=".25"/><ellipse cx="3924" cy="28" rx="3" ry="2" fill="#ad8052" opacity=".25"/><ellipse cx="2996" cy="814" rx="3" ry="2" fill="#ad8052" opacity=".25"/><ellipse cx="3906" cy="315" rx="3" ry="2" fill="#ad8052" opacity=".25"/><ellipse cx="2260" cy="142" rx="7" ry="2" fill="#ad8052" opacity=".25"/><ellipse cx="83" cy="391" rx="7" ry="2" fill="#ad8052" opacity=".25"/><ellipse cx="1031" cy="976" rx="7" ry="2" fill="#ad8052" opacity=".25"/><ellipse cx="192" cy="270" rx="6" ry="2" fill="#ad8052" opacity=".25"/><ellipse cx="2046" cy="872" rx="6" ry="2" fill="#ad8052" opacity=".25"/><ellipse cx="3449" cy="263" rx="7" ry="2" fill="#ad8052" opacity=".25"/><ellipse cx="3322" cy="769" rx="3" ry="2" fill="#ad8052" opacity=".25"/><ellipse cx="1093" cy="145" rx="2" ry="2" fill="#ad8052" opacity=".25"/><ellipse cx="3251" cy="96" rx="3" ry="2" fill="#ad8052" opacity=".25"/><ellipse cx="3660" cy="805" rx="3" ry="2" fill="#ad8052" opacity=".25"/><ellipse cx="588" cy="888" rx="2" ry="2" fill="#ad8052" opacity=".25"/><ellipse cx="2304" cy="129" rx="4" ry="2" fill="#ad8052" opacity=".25"/><ellipse cx="4045" cy="909" rx="3" ry="2" fill="#ad8052" opacity=".25"/><ellipse cx="1360" cy="185" rx="3" ry="2" fill="#ad8052" opacity=".25"/><ellipse cx="3095" cy="206" rx="7" ry="2" fill="#ad8052" opacity=".25"/><ellipse cx="4135" cy="894" rx="7" ry="2" fill="#ad8052" opacity=".25"/><ellipse cx="464" cy="809" rx="2" ry="2" fill="#ad8052" opacity=".25"/><ellipse cx="1436" cy="874" rx="7" ry="2" fill="#ad8052" opacity=".25"/><ellipse cx="1911" cy="258" rx="7" ry="2" fill="#ad8052" opacity=".25"/><ellipse cx="2569" cy="763" rx="2" ry="2" fill="#ad8052" opacity=".25"/><ellipse cx="1279" cy="316" rx="7" ry="2" fill="#ad8052" opacity=".25"/><ellipse cx="2416" cy="837" rx="6" ry="2" fill="#ad8052" opacity=".25"/><ellipse cx="4014" cy="970" rx="6" ry="2" fill="#ad8052" opacity=".25"/><ellipse cx="2653" cy="990" rx="6" ry="2" fill="#ad8052" opacity=".25"/><ellipse cx="2540" cy="298" rx="7" ry="2" fill="#ad8052" opacity=".25"/><ellipse cx="1552" cy="65" rx="6" ry="2" fill="#ad8052" opacity=".25"/><ellipse cx="2668" cy="206" rx="4" ry="2" fill="#ad8052" opacity=".25"/><ellipse cx="535" cy="325" rx="7" ry="2" fill="#ad8052" opacity=".25"/><ellipse cx="3442" cy="110" rx="2" ry="2" fill="#ad8052" opacity=".25"/><ellipse cx="162" cy="696" rx="7" ry="2" fill="#ad8052" opacity=".25"/><ellipse cx="3189" cy="896" rx="5" ry="2" fill="#ad8052" opacity=".25"/><ellipse cx="576" cy="230" rx="2" ry="2" fill="#ad8052" opacity=".25"/><ellipse cx="399" cy="677" rx="5" ry="2" fill="#ad8052" opacity=".25"/><ellipse cx="344" cy="252" rx="4" ry="2" fill="#ad8052" opacity=".25"/><ellipse cx="3314" cy="741" rx="5" ry="2" fill="#ad8052" opacity=".25"/><ellipse cx="3735" cy="816" rx="3" ry="2" fill="#ad8052" opacity=".25"/><ellipse cx="3268" cy="394" rx="4" ry="2" fill="#ad8052" opacity=".25"/><ellipse cx="3987" cy="233" rx="7" ry="2" fill="#ad8052" opacity=".25"/><ellipse cx="699" cy="38" rx="5" ry="2" fill="#ad8052" opacity=".25"/><ellipse cx="3055" cy="734" rx="6" ry="2" fill="#ad8052" opacity=".25"/><ellipse cx="1768" cy="798" rx="5" ry="2" fill="#ad8052" opacity=".25"/><ellipse cx="2147" cy="251" rx="5" ry="2" fill="#ad8052" opacity=".25"/><ellipse cx="4085" cy="395" rx="4" ry="2" fill="#ad8052" opacity=".25"/><ellipse cx="3128" cy="844" rx="6" ry="2" fill="#ad8052" opacity=".25"/><ellipse cx="52" cy="165" rx="4" ry="2" fill="#ad8052" opacity=".25"/><ellipse cx="1655" cy="319" rx="5" ry="2" fill="#ad8052" opacity=".25"/><ellipse cx="1191" cy="92" rx="6" ry="2" fill="#ad8052" opacity=".25"/><ellipse cx="1436" cy="81" rx="6" ry="2" fill="#ad8052" opacity=".25"/><ellipse cx="3075" cy="760" rx="7" ry="2" fill="#ad8052" opacity=".25"/><ellipse cx="3787" cy="110" rx="3" ry="2" fill="#ad8052" opacity=".25"/><ellipse cx="3549" cy="210" rx="7" ry="2" fill="#ad8052" opacity=".25"/><ellipse cx="2746" cy="380" rx="7" ry="2" fill="#ad8052" opacity=".25"/><ellipse cx="1546" cy="267" rx="2" ry="2" fill="#ad8052" opacity=".25"/><ellipse cx="234" cy="329" rx="6" ry="2" fill="#ad8052" opacity=".25"/><ellipse cx="2082" cy="967" rx="3" ry="2" fill="#ad8052" opacity=".25"/><ellipse cx="4153" cy="204" rx="3" ry="2" fill="#ad8052" opacity=".25"/><ellipse cx="2272" cy="733" rx="5" ry="2" fill="#ad8052" opacity=".25"/><ellipse cx="1287" cy="963" rx="5" ry="2" fill="#ad8052" opacity=".25"/><ellipse cx="2298" cy="685" rx="3" ry="2" fill="#ad8052" opacity=".25"/><ellipse cx="2231" cy="101" rx="3" ry="2" fill="#ad8052" opacity=".25"/><ellipse cx="1762" cy="35" rx="4" ry="2" fill="#ad8052" opacity=".25"/><ellipse cx="3012" cy="19" rx="2" ry="2" fill="#ad8052" opacity=".25"/><ellipse cx="3614" cy="717" rx="5" ry="2" fill="#ad8052" opacity=".25"/><ellipse cx="1967" cy="7" rx="6" ry="2" fill="#ad8052" opacity=".25"/><ellipse cx="1211" cy="96" rx="4" ry="2" fill="#ad8052" opacity=".25"/><ellipse cx="3035" cy="915" rx="2" ry="2" fill="#ad8052" opacity=".25"/><ellipse cx="3031" cy="170" rx="3" ry="2" fill="#ad8052" opacity=".25"/><ellipse cx="402" cy="316" rx="3" ry="2" fill="#ad8052" opacity=".25"/><ellipse cx="2001" cy="230" rx="6" ry="2" fill="#ad8052" opacity=".25"/><ellipse cx="3831" cy="904" rx="2" ry="2" fill="#ad8052" opacity=".25"/><ellipse cx="598" cy="82" rx="5" ry="2" fill="#ad8052" opacity=".25"/><ellipse cx="1542" cy="155" rx="2" ry="2" fill="#ad8052" opacity=".25"/><ellipse cx="4074" cy="834" rx="6" ry="2" fill="#ad8052" opacity=".25"/><ellipse cx="2768" cy="156" rx="4" ry="2" fill="#ad8052" opacity=".25"/><ellipse cx="1257" cy="361" rx="4" ry="2" fill="#ad8052" opacity=".25"/><ellipse cx="75" cy="911" rx="2" ry="2" fill="#ad8052" opacity=".25"/><ellipse cx="554" cy="190" rx="6" ry="2" fill="#ad8052" opacity=".25"/><ellipse cx="804" cy="694" rx="3" ry="2" fill="#ad8052" opacity=".25"/><ellipse cx="2950" cy="276" rx="4" ry="2" fill="#ad8052" opacity=".25"/><ellipse cx="481" cy="165" rx="2" ry="2" fill="#ad8052" opacity=".25"/><ellipse cx="4055" cy="281" rx="7" ry="2" fill="#ad8052" opacity=".25"/><ellipse cx="3272" cy="161" rx="2" ry="2" fill="#ad8052" opacity=".25"/><ellipse cx="852" cy="238" rx="4" ry="2" fill="#ad8052" opacity=".25"/><ellipse cx="1629" cy="707" rx="3" ry="2" fill="#ad8052" opacity=".25"/><ellipse cx="3469" cy="80" rx="4" ry="2" fill="#ad8052" opacity=".25"/><ellipse cx="1794" cy="218" rx="6" ry="2" fill="#ad8052" opacity=".25"/><ellipse cx="331" cy="745" rx="4" ry="2" fill="#ad8052" opacity=".25"/><ellipse cx="1426" cy="21" rx="7" ry="2" fill="#ad8052" opacity=".25"/><ellipse cx="3919" cy="165" rx="5" ry="2" fill="#ad8052" opacity=".25"/><ellipse cx="154" cy="928" rx="4" ry="2" fill="#ad8052" opacity=".25"/><ellipse cx="455" cy="222" rx="7" ry="2" fill="#ad8052" opacity=".25"/><use href="#mesa" transform="translate(50 180) rotate(49) scale(0.82)"/><use href="#mesa" transform="translate(250 820) rotate(28) scale(0.75)"/><use href="#mesa" transform="translate(450 180) rotate(-36) scale(1.03)"/><use href="#mesa" transform="translate(650 820) rotate(-1) scale(0.54)"/><use href="#mesa" transform="translate(850 180) rotate(9) scale(1.01)"/><use href="#mesa" transform="translate(1050 820) rotate(-4) scale(0.41)"/><use href="#mesa" transform="translate(1250 180) rotate(-5) scale(0.51)"/><use href="#mesa" transform="translate(1450 820) rotate(-17) scale(0.79)"/><use href="#mesa" transform="translate(1650 180) rotate(46) scale(0.64)"/><use href="#mesa" transform="translate(1850 820) rotate(45) scale(0.50)"/><use href="#mesa" transform="translate(2050 180) rotate(18) scale(0.73)"/><use href="#mesa" transform="translate(2250 820) rotate(2) scale(0.53)"/><use href="#mesa" transform="translate(2450 180) rotate(15) scale(0.76)"/><use href="#mesa" transform="translate(2650 820) rotate(49) scale(0.69)"/><use href="#mesa" transform="translate(2850 180) rotate(48) scale(0.97)"/><use href="#mesa" transform="translate(3050 820) rotate(-4) scale(0.99)"/><use href="#mesa" transform="translate(3250 180) rotate(-20) scale(0.66)"/><use href="#mesa" transform="translate(3450 820) rotate(-28) scale(0.63)"/><use href="#mesa" transform="translate(3650 180) rotate(35) scale(0.93)"/><use href="#mesa" transform="translate(3850 820) rotate(-4) scale(0.77)"/><use href="#mesa" transform="translate(4050 180) rotate(-47) scale(0.99)"/><use href="#mesa" transform="translate(4250 820) rotate(24) scale(0.89)"/><path d="M-100 640 L420 560 L1092 480 L1428 520 L1764 570 L2436 460 L3108 540 L3780 470 L4400 580" fill="none" stroke="#cfaa79" stroke-width="102" stroke-linejoin="round"/><path d="M-100 640 L420 560 L1092 480 L1428 520 L1764 570 L2436 460 L3108 540 L3780 470 L4400 580" fill="none" stroke="#f6e6c7" stroke-width="83" stroke-linejoin="round"/><path d="M-100 640 L420 560 L1092 480 L1428 520 L1764 570 L2436 460 L3108 540 L3780 470 L4400 580" fill="none" stroke="#596365" stroke-width="74" stroke-linejoin="round"/><path d="M-100 640 L420 560 L1092 480 L1428 520 L1764 570 L2436 460 L3108 540 L3780 470 L4400 580" fill="none" stroke="#f9dfa1" stroke-width="3" stroke-dasharray="20 21" stroke-linejoin="round"/><use href="#cactus" transform="translate(50 318) rotate(-7) scale(0.96)"/><use href="#cactus" transform="translate(155 745) rotate(-2) scale(0.56)"/><use href="#cactus" transform="translate(260 359) rotate(19) scale(0.82)"/><use href="#cactus" transform="translate(365 754) rotate(-7) scale(0.63)"/><use href="#cactus" transform="translate(470 778) rotate(-6) scale(0.74)"/><use href="#cactus" transform="translate(575 685) rotate(14) scale(0.93)"/><use href="#cactus" transform="translate(680 309) rotate(1) scale(0.79)"/><use href="#cactus" transform="translate(785 697) rotate(-6) scale(1.00)"/><use href="#cactus" transform="translate(890 748) rotate(5) scale(0.52)"/><use href="#cactus" transform="translate(995 753) rotate(9) scale(0.60)"/><use href="#cactus" transform="translate(1100 375) rotate(10) scale(0.84)"/><use href="#cactus" transform="translate(1205 307) rotate(-12) scale(0.75)"/><use href="#cactus" transform="translate(1310 775) rotate(4) scale(0.78)"/><use href="#cactus" transform="translate(1415 806) rotate(-16) scale(0.93)"/><use href="#cactus" transform="translate(1520 307) rotate(-4) scale(0.87)"/><use href="#cactus" transform="translate(1625 745) rotate(-8) scale(0.80)"/><use href="#cactus" transform="translate(1730 689) rotate(-1) scale(0.62)"/><use href="#cactus" transform="translate(1835 323) rotate(-4) scale(0.55)"/><use href="#cactus" transform="translate(1940 707) rotate(12) scale(0.60)"/><use href="#cactus" transform="translate(2045 793) rotate(-7) scale(0.52)"/><use href="#cactus" transform="translate(2150 746) rotate(3) scale(0.50)"/><use href="#cactus" transform="translate(2255 341) rotate(-17) scale(0.63)"/><use href="#cactus" transform="translate(2360 737) rotate(-13) scale(0.88)"/><use href="#cactus" transform="translate(2465 289) rotate(18) scale(0.85)"/><use href="#cactus" transform="translate(2570 794) rotate(14) scale(0.98)"/><use href="#cactus" transform="translate(2675 735) rotate(-19) scale(0.82)"/><use href="#cactus" transform="translate(2780 698) rotate(2) scale(0.70)"/><use href="#cactus" transform="translate(2885 788) rotate(12) scale(0.79)"/><use href="#cactus" transform="translate(2990 759) rotate(-19) scale(0.93)"/><use href="#cactus" transform="translate(3095 758) rotate(17) scale(0.95)"/><use href="#cactus" transform="translate(3200 304) rotate(11) scale(0.58)"/><use href="#cactus" transform="translate(3305 294) rotate(0) scale(0.85)"/><use href="#cactus" transform="translate(3410 707) rotate(-17) scale(0.73)"/><use href="#cactus" transform="translate(3515 324) rotate(-20) scale(0.81)"/><use href="#cactus" transform="translate(3620 333) rotate(15) scale(0.56)"/><use href="#cactus" transform="translate(3725 311) rotate(-13) scale(0.88)"/><use href="#cactus" transform="translate(3830 331) rotate(14) scale(0.51)"/><use href="#cactus" transform="translate(3935 333) rotate(18) scale(0.78)"/><use href="#cactus" transform="translate(4040 331) rotate(7) scale(0.79)"/><use href="#cactus" transform="translate(4145 311) rotate(-1) scale(0.98)"/></svg>